<svg xmlns="http://www.w3.org/2000/svg" viewBox="0 0 300 100">
  <!-- Tree -->
  <g transform="translate(40, 15)">
    <!-- Tree Trunk -->
    <path d="M45 70 L55 70 L52 45 L48 45 Z" fill="#1a1a4b"/>
    
    <!-- Tree Canopy -->
    <path d="M10 45 
             C10 45, 30 15, 50 15
             C70 15, 90 45, 90 45
             C90 45, 75 35, 50 35
             C25 35, 10 45, 10 45 Z" 
          fill="#1a1a4b"/>
    
    <!-- Tree Top -->
    <path d="M30 35
             C30 35, 40 5, 50 5
             C60 5, 70 35, 70 35
             C70 35, 60 25, 50 25
             C40 25, 30 35, 30 35 Z"
          fill="#1a1a4b"/>
  </g>
  
  <!-- Text -->
  <g transform="translate(110, 45)">
    <text font-family="Arial, sans-serif" font-size="24" fill="#1a1a4b" font-weight="bold">
      <tspan x="0" y="0">WISDOM</tspan>
      <tspan x="0" y="25">TREE</tspan>
    </text>
  </g>
  
  <!-- Registered Trademark -->
  <text x="270" y="30" font-family="Arial, sans-serif" font-size="8" fill="#1a1a4b">®</text>
</svg>
